<svg width="116" height="20" viewBox="0 0 116 20" fill="none" xmlns="http://www.w3.org/2000/svg">
<path d="M59.4235 15.1C58.7795 15.1 58.2229 14.9804 57.7537 14.7412C57.2937 14.4928 56.9349 14.1478 56.6773 13.7062C56.4289 13.2554 56.3047 12.731 56.3047 12.133V7.717C56.3047 7.1098 56.4289 6.5854 56.6773 6.1438C56.9349 5.7022 57.2937 5.3618 57.7537 5.1226C58.2229 4.8742 58.7795 4.75 59.4235 4.75C60.0675 4.75 60.6195 4.8742 61.0795 5.1226C61.5487 5.3618 61.9075 5.7022 62.1559 6.1438C62.4135 6.5854 62.5423 7.1098 62.5423 7.717V12.133C62.5423 12.731 62.4135 13.2554 62.1559 13.7062C61.9075 14.1478 61.5487 14.4928 61.0795 14.7412C60.6195 14.9804 60.0675 15.1 59.4235 15.1ZM59.4235 13.6372C59.9019 13.6372 60.2653 13.5084 60.5137 13.2508C60.7621 12.984 60.8863 12.6114 60.8863 12.133V7.717C60.8863 7.2294 60.7621 6.8568 60.5137 6.5992C60.2653 6.3416 59.9019 6.2128 59.4235 6.2128C58.9451 6.2128 58.5817 6.3416 58.3333 6.5992C58.0849 6.8568 57.9607 7.2294 57.9607 7.717V12.133C57.9607 12.6114 58.0849 12.984 58.3333 13.2508C58.5909 13.5084 58.9543 13.6372 59.4235 13.6372Z" fill="currentColor"/>
<path d="M74.2729 14.9619V4.88794H77.6126C78.275 4.88794 78.8546 5.01674 79.3514 5.27434C79.8482 5.52274 80.23 5.88154 80.4968 6.35074C80.7727 6.81074 80.9108 7.35354 80.9108 7.97914C80.9108 8.59554 80.7727 9.13834 80.4968 9.60754C80.23 10.0675 79.8482 10.4263 79.3514 10.6839C78.8638 10.9323 78.2842 11.0565 77.6126 11.0565H75.929V14.9619H74.2729ZM75.929 9.56614H77.6126C78.1002 9.56614 78.4912 9.42354 78.7856 9.13834C79.08 8.84394 79.2272 8.45754 79.2272 7.97914C79.2272 7.49154 79.08 7.10514 78.7856 6.81994C78.4912 6.52554 78.1002 6.37834 77.6126 6.37834H75.929V9.56614Z" fill="currentColor"/>
<path d="M64.4112 4.91199H65.9428L68.2644 10.8874L70.5791 4.91199H71.9998L68.8951 13.462H67.6268L64.4112 4.91199ZM63.8359 4.91199H65.2497L65.4784 11.3106V14.962H63.8359V4.91199ZM71.2652 4.91199H72.6859V14.962H71.0435V11.3106L71.2652 4.91199Z" fill="currentColor"/>
<path d="M85.147 15.1001C84.1626 15.1001 83.399 14.8333 82.8562 14.2997C82.3134 13.7569 82.042 13.0255 82.042 12.1055V4.88806H83.698V12.0917C83.698 12.5793 83.8176 12.9611 84.0568 13.2371C84.3052 13.5131 84.6686 13.6511 85.147 13.6511C85.6162 13.6511 85.975 13.5131 86.2234 13.2371C86.4718 12.9611 86.596 12.5793 86.596 12.0917V4.88806H88.252V12.1055C88.252 13.0255 87.9806 13.7569 87.4378 14.2997C86.895 14.8333 86.1314 15.1001 85.147 15.1001Z" fill="currentColor"/>
<path d="M92.2933 14.9621V6.41986H89.6299V4.88806H96.6127V6.41986H93.9493V14.9621H92.2933Z" fill="currentColor"/>
<path d="M98.1982 14.9621V4.88806H104.201V6.33706H99.8266V9.02806H103.718V10.4771H99.8266V13.5131H104.201V14.9621H98.1982Z" fill="currentColor"/>
<path d="M105.857 14.9621V4.88806H109.045C109.698 4.88806 110.268 5.01226 110.756 5.26066C111.253 5.50906 111.635 5.85866 111.901 6.30946C112.168 6.75106 112.302 7.27086 112.302 7.86886C112.302 8.54046 112.131 9.12926 111.791 9.63526C111.46 10.1321 111.009 10.4817 110.439 10.6841L112.44 14.9621H110.577L108.796 10.9187H107.513V14.9621H105.857ZM107.513 9.45586H109.045C109.532 9.45586 109.914 9.31786 110.19 9.04186C110.475 8.76586 110.618 8.39326 110.618 7.92406C110.618 7.43646 110.475 7.05466 110.19 6.77866C109.914 6.49346 109.532 6.35086 109.045 6.35086H107.513V9.45586Z" fill="currentColor"/>
<path d="M52.1037 15.1C51.4597 15.1 50.8985 14.9804 50.4201 14.7412C49.9509 14.4928 49.5829 14.1478 49.3161 13.7062C49.0585 13.2554 48.9297 12.731 48.9297 12.133V7.717C48.9297 7.1098 49.0585 6.5854 49.3161 6.1438C49.5829 5.7022 49.9509 5.3618 50.4201 5.1226C50.8985 4.8742 51.4597 4.75 52.1037 4.75C52.7477 4.75 53.3043 4.8742 53.7735 5.1226C54.2519 5.3618 54.6199 5.7022 54.8775 6.1438C55.1351 6.5854 55.2639 7.1098 55.2639 7.717H53.6079C53.6079 7.2294 53.4745 6.8568 53.2077 6.5992C52.9501 6.3416 52.5821 6.2128 52.1037 6.2128C51.6253 6.2128 51.2527 6.3416 50.9859 6.5992C50.7191 6.8568 50.5857 7.2294 50.5857 7.717V12.133C50.5857 12.6206 50.7191 12.9932 50.9859 13.2508C51.2527 13.5084 51.6253 13.6372 52.1037 13.6372C52.5821 13.6372 52.9501 13.5084 53.2077 13.2508C53.4745 12.9932 53.6079 12.6206 53.6079 12.133H55.2639C55.2639 12.731 55.1351 13.2554 54.8775 13.7062C54.6199 14.1478 54.2519 14.4928 53.7735 14.7412C53.3043 14.9804 52.7477 15.1 52.1037 15.1Z" fill="currentColor"/>
<path d="M41.0913 15V11.3334L38.1304 4.89954H39.9429L41.5202 8.4001C41.6402 8.67682 41.7416 8.94893 41.8246 9.21643C41.9077 9.48393 41.963 9.69148 41.9907 9.83906C42.0276 9.69148 42.0829 9.48393 42.1567 9.21643C42.2397 8.94893 42.3412 8.67682 42.4611 8.4001L43.9969 4.89954H45.7956L42.8347 11.3334V15H41.0913Z" fill="currentColor"/>
<path d="M30.5122 15V4.89954H32.6291L35.4379 13.0629C35.4102 12.7677 35.3779 12.4218 35.341 12.0252C35.3134 11.6193 35.2903 11.2088 35.2719 10.7938C35.2534 10.3695 35.2442 10.0005 35.2442 9.68686V4.89954H36.8215V15H34.7046L31.9235 6.83661C31.9419 7.1041 31.965 7.42695 31.9927 7.80514C32.0204 8.18333 32.0434 8.57074 32.0619 8.96738C32.0803 9.36402 32.0895 9.72837 32.0895 10.0604V15H30.5122Z" fill="currentColor"/>
<path d="M21.7041 15L24.25 4.89954H26.4776L29.0373 15H27.2663L26.7128 12.551H24.0286L23.4751 15H21.7041ZM24.3468 11.1397H26.3946L25.7858 8.42777C25.6843 7.97579 25.5967 7.56992 25.5229 7.21018C25.4491 6.84122 25.3984 6.57372 25.3707 6.40768C25.343 6.57372 25.2923 6.84122 25.2185 7.21018C25.1539 7.56992 25.0663 7.97117 24.9556 8.41393L24.3468 11.1397Z" fill="currentColor"/>
<path d="M10 4H4V10V16H10M10 4H16V10V16H10M10 4V16" stroke="currentColor" stroke-width="1.4" fill="none"/>
</svg>
