<svg width="88" height="20" viewBox="0 0 88 20" fill="none" xmlns="http://www.w3.org/2000/svg">
<path fill-rule="evenodd" clip-rule="evenodd" d="M4 16H10H16V10V4H10H4V10V16Z" fill="none"/>
<path d="M10 4H4V10V16H10M10 4H16V10V16H10M10 4V16" stroke="currentColor" stroke-width="1.4" fill="none" />
<path d="M75.9917 10.208V16.466H74.8577V10.124C74.4377 11.496 73.8217 13.064 73.3597 13.708L72.4917 12.868C73.4437 11.608 74.3397 9.39601 74.7317 7.70201H72.9117V6.48401H74.8577V3.65601H75.9917V6.48401H77.7137V7.70201H75.9917V8.73801C76.4397 9.21401 77.5877 10.74 77.8257 11.062L77.0977 12.126C76.8877 11.678 76.3837 10.796 75.9917 10.208ZM76.5377 15.64C78.0917 13.876 78.3017 10.852 78.3157 8.83601V4.41201H82.5857V14.394C82.5857 14.744 82.5857 15.01 82.6277 15.066C82.6837 15.108 82.7397 15.15 82.8937 15.15H83.0057C83.1597 15.15 83.2297 15.108 83.2857 15.024C83.3277 14.94 83.3837 14.786 83.3837 14.478C83.4117 14.198 83.4397 13.4 83.4397 12.546C83.6497 12.77 84.0697 12.994 84.3217 13.092C84.3217 13.82 84.2657 14.94 84.2097 15.29C84.1537 15.668 84.0137 15.976 83.8457 16.116C83.6497 16.256 83.3837 16.34 82.9497 16.34H82.6557C82.2357 16.34 81.8717 16.228 81.6897 16.018C81.4797 15.794 81.4097 15.388 81.4097 14.268V5.64401H79.4917V8.76601C79.4917 10.95 79.1557 14.548 77.4617 16.466L76.5377 15.64Z" fill="currentColor"/>
<path d="M64.3802 14.1C64.0722 14.926 63.1482 15.962 61.1322 16.578L60.7122 15.5C61.8882 15.22 62.6862 14.604 63.0222 14.1H60.3622V13.064H63.4002V11.944H61.7902V6.74998H63.1202C63.0222 6.42798 62.7982 6.00798 62.5882 5.62998H62.1122C61.7902 6.16198 61.3842 6.66598 60.9922 7.07198L60.1382 6.25998C60.8102 5.65798 61.5242 4.59398 61.9162 3.59998L63.0222 3.92198C62.9242 4.15998 62.7982 4.38398 62.7002 4.60798H65.6682V5.60198C66.1302 5.04198 66.5082 4.29998 66.7462 3.59998L67.8942 3.87998C67.8242 4.13198 67.6982 4.38398 67.6002 4.60798H71.2542V5.62998H69.1682C69.3502 5.88198 69.5462 6.16198 69.6582 6.37198L68.8882 6.74998H70.1062V11.944H68.6082V13.064H71.3382V14.1H68.6082V16.48H67.4182V14.1H64.3802ZM62.9942 11.146H68.8602V10.432H62.9942V11.146ZM62.9942 9.64798H68.8602V8.96198H62.9942V9.64798ZM62.9942 8.20598H68.8602V7.56198H62.9942V8.20598ZM63.3722 6.74998H65.9342C65.6822 6.56798 65.2482 6.32998 65.0242 6.21798C65.2202 6.06398 65.4722 5.85398 65.6402 5.62998H63.7782C63.9322 5.90998 64.1002 6.21798 64.1842 6.44198L63.3722 6.74998ZM64.5622 13.064H67.4182V11.944H64.5622V13.064ZM66.1582 6.74998H68.6082C68.4542 6.42798 68.1322 5.99398 67.8662 5.62998H66.9982C66.7462 6.06398 66.4382 6.44198 66.1582 6.74998Z" fill="currentColor"/>
<path d="M55.8909 9.36792V16.4939H54.6449V9.36792H51.5929V8.03791H54.6449V3.71191H55.8909V8.03791H58.8869V9.36792H55.8909ZM47.6309 9.11591V7.84191H50.7109V13.5819L52.0829 12.4619C52.1669 12.8119 52.3769 13.3999 52.4749 13.6239C50.1929 15.4579 49.6889 16.0179 49.6189 16.1019L48.8069 15.0939C49.1009 14.9119 49.4929 14.3799 49.4929 13.8059V9.11591H47.6309ZM48.6529 4.66391L49.4229 3.83791C50.0529 4.43992 51.0189 5.36391 51.4809 5.85392L50.6549 6.77792C50.4029 6.49792 49.9829 6.06391 49.5629 5.61591L49.4509 5.50391L49.3529 5.39191C49.1009 5.13992 48.8629 4.88792 48.6529 4.66391Z" fill="currentColor"/>
<path d="M35.9214 5.54595V4.55194H40.1074C40.0094 4.31395 39.9114 4.01994 39.7854 3.78195L40.9474 3.54395C41.1154 3.83794 41.2694 4.21594 41.3954 4.55194H45.2734V5.54595H43.7474C43.5794 5.90994 43.3694 6.45595 43.2294 6.72195H45.9174V7.74395H35.3474V6.72195H38.0634C38.0074 6.44195 37.7834 5.88195 37.6154 5.54595H35.9214ZM35.1514 15.4999C35.6134 14.8139 36.2434 13.7499 36.6354 13.0219L37.6154 13.4979L37.0694 14.5199L36.9994 14.6459C36.7054 15.1779 36.3834 15.7239 36.1174 16.1159L35.1514 15.4999ZM36.7614 12.4619V8.33195H44.5454V12.4619H36.7614ZM37.8674 11.6079H43.3834V10.7959H37.8674V11.6079ZM37.8674 9.98394H43.3834V9.18595H37.8674V9.98394ZM38.0634 14.8699V13.1759H39.2394V14.8979C39.2394 15.2339 39.3374 15.3179 40.4574 15.3179H41.3394C42.3334 15.3179 42.4174 15.0379 42.4594 14.1139L43.4814 14.2679C43.3694 15.8639 42.9914 16.3679 41.3674 16.3679H40.4014C38.4834 16.3679 38.0634 15.9479 38.0634 14.8699ZM38.7914 5.54595C38.9874 5.93795 39.2114 6.45595 39.2674 6.72195H41.9414C42.0814 6.41395 42.3194 5.92395 42.4594 5.54595H38.7914ZM39.5334 13.2599L40.2194 12.5459C40.8494 12.7979 41.7874 13.5399 42.2074 13.9599L41.4794 14.7719C41.1014 14.3519 40.1914 13.6519 39.5334 13.2599ZM43.4674 13.3579L44.3914 12.8959C44.9794 13.5819 45.6794 14.7299 45.9734 15.3879L44.9514 15.9199C44.7134 15.2339 44.0134 14.0719 43.4674 13.3579Z" fill="currentColor"/>
<path d="M25.262 6.904V16.48H24.086V8.78C23.722 9.382 23.246 9.956 22.966 10.264L22 9.186C23.344 7.828 24.646 5.672 25.346 3.698L26.508 4.09C26.186 5.014 25.696 6.022 25.262 6.904ZM25.696 10.628V9.382H29.182V6.036C28.86 6.106 28.51 6.162 28.16 6.218L28.02 6.232L27.88 6.26C27.376 6.344 26.858 6.4 26.41 6.456C26.354 6.176 26.186 5.658 26.046 5.364C26.788 5.266 27.6 5.126 28.398 4.972L28.552 4.944C30.022 4.65 31.45 4.3 32.374 3.922L33.242 5.014C32.752 5.196 32.122 5.378 31.464 5.546L31.324 5.574C31.254 5.602 31.184 5.616 31.114 5.63L30.974 5.672C30.764 5.714 30.554 5.77 30.344 5.812V9.382H33.662V10.628H30.344V14.716H33.494V15.948H26.144V14.716H29.182V10.628H25.696Z" fill="currentColor"/>
</svg>
